<!DOCTYPE svg PUBLIC "-//W3C//DTD SVG 1.1//EN" "http://www.w3.org/Graphics/SVG/1.1/DTD/svg11.dtd">
<!-- Uploaded to: SVG Repo, www.svgrepo.com, Transformed by: SVG Repo Mixer Tools -->
<svg fill="#ffffff" height="800px" width="800px" version="1.1" id="Layer_1" xmlns="http://www.w3.org/2000/svg" xmlns:xlink="http://www.w3.org/1999/xlink" viewBox="0 0 496 496" xml:space="preserve">
<g id="SVGRepo_bgCarrier" stroke-width="0"/>
<g id="SVGRepo_tracerCarrier" stroke-linecap="round" stroke-linejoin="round"/>
<g id="SVGRepo_iconCarrier"> <g> <g> <g> <path d="M248,72c-57.344,0-104,46.656-104,104s46.656,104,104,104s104-46.656,104-104S305.344,72,248,72z M248,264 c-48.52,0-88-39.48-88-88s39.48-88,88-88s88,39.48,88,88S296.52,264,248,264z"/> <path d="M424,176c0-26.744-18.862-49.164-43.975-54.685c13.852-21.662,11.338-50.849-7.569-69.763 c-18.922-18.908-48.108-21.428-69.769-7.568C297.169,18.867,274.747,0,248,0c-26.747,0-49.169,18.866-54.687,43.982 c-21.657-13.86-50.847-11.345-69.769,7.57c-18.914,18.914-21.429,48.101-7.571,69.763C90.861,126.837,72,149.257,72,176 c0,26.747,18.866,49.169,43.983,54.687c-13.86,21.659-11.346,50.854,7.569,69.769c7.875,7.869,17.529,12.889,27.68,15.086 L118.416,496h28.248l28.584-21.44l21.44,21.44h26.088l24.003-144.031C247.186,351.978,247.59,352,248,352 s0.814-0.022,1.221-0.031L273.224,496h26.088l21.44-21.44L349.336,496h28.248l-32.816-180.458 c10.15-2.197,19.804-7.217,27.68-15.086c18.916-18.916,21.43-48.106,7.568-69.769C405.133,225.169,424,202.747,424,176z M248,296 c-66.168,0-120-53.832-120-120S181.832,56,248,56s120,53.832,120,120S314.168,296,248,296z M361.144,62.864 c13.056,13.063,15.172,32.977,6.363,48.265c-12.557-23.041-31.584-42.07-54.624-54.63 C328.172,47.692,348.089,49.809,361.144,62.864z M248,16c18.457,0,34.026,12.569,38.619,29.594C274.371,41.961,261.411,40,248,40 s-26.371,1.961-38.619,5.594C213.974,28.569,229.543,16,248,16z M134.856,62.864c13.055-13.055,32.972-15.172,48.262-6.365 c-23.04,12.559-42.067,31.588-54.624,54.63C119.684,95.841,121.8,75.927,134.856,62.864z M88,176 c0-18.457,12.569-34.026,29.594-38.619C113.961,149.629,112,162.589,112,176s1.961,26.371,5.594,38.619 C100.569,210.026,88,194.457,88,176z M128.499,240.882c12.559,23.04,31.588,42.067,54.629,54.625 c-15.289,8.809-35.209,6.693-48.265-6.363C121.809,276.082,119.692,256.169,128.499,240.882z M209.224,480h-5.912l-26.56-26.56 L141.336,480h-3.752l29.692-163.335c9.108-0.668,18.08-3.546,26.039-8.638c4.299,19.549,18.835,35.304,37.686,41.326L209.224,480 z M209.381,306.406C221.629,310.039,234.589,312,248,312s26.371-1.961,38.619-5.594C282.026,323.431,266.457,336,248,336 C229.543,336,213.974,323.431,209.381,306.406z M354.664,480l-35.416-26.56L292.688,480h-5.912l-21.777-130.647 c18.85-6.022,33.387-21.777,37.686-41.325c7.958,5.091,16.928,7.97,26.039,8.637L358.416,480H354.664z M361.136,289.144 c-13.056,13.056-32.975,15.172-48.265,6.363c23.041-12.557,42.07-31.584,54.629-54.625 C376.308,256.169,374.191,276.082,361.136,289.144z M378.406,214.619C382.039,202.371,384,189.411,384,176 s-1.961-26.371-5.594-38.619C395.431,141.974,408,157.543,408,176C408,194.457,395.431,210.026,378.406,214.619z"/> </g> </g> </g> </g>
</svg>